# xmcd
#
# Track frame offsets:
#	150
#	13950
#	29025
#	44325
#	61800
#	77625
#	91500
#	104937
#	122851
#	138491
#	154716
#	172416
#	191616
#	205977
#
# Disc length: 2932 seconds
#
# Revision: 0
# Processed by: cddbd v1.5.2PL0 Copyright (c) Steve Scherf et al.
# Submitted via: EasyCDDAExtractor 15.3.0.1
#
DISCID=cb0b720e
DTITLE=Mariana - Mariana Esta De Fiesta... Atrevete!!
DYEAR=2007
DGENRE=Latin
TTITLE0=Atrevete A Mirarme De Frente
TTITLE1=Los Domingos
TTITLE2=Llorando Se Fue
TTITLE3=A Mover La Colita
TTITLE4=Mil Horas
TTITLE5=¡Ay! Cosita Linda
TTITLE6=El Canalla
TTITLE7=Caballo Viejo
TTITLE8=Que No Quede Huella (Con La Participacion De Lupe Esparza)
TTITLE9=La Hierba Se Movia
TTITLE10=Fiesta
TTITLE11=Cosas Del Amor (Con La Participacion De Margarita La Diosa De La Cumb
TTITLE11=ia)
TTITLE12=Atrevete A Mirarme De Frente (Version Grupera)
TTITLE13=Atrevete A Mirarme De Frente (Version Pop)
EXTD=
EXTT0=
EXTT1=
EXTT2=
EXTT3=
EXTT4=
EXTT5=
EXTT6=
EXTT7=
EXTT8=
EXTT9=
EXTT10=
EXTT11=
EXTT12=
EXTT13=
PLAYORDER=
